<mxfile host="app.diagrams.net" modified="2020-11-18T08:02:05.577Z" agent="5.0 (Windows NT 10.0; Win64; x64) AppleWebKit/537.36 (KHTML, like Gecko) Chrome/86.0.4240.198 Safari/537.36" etag="5nqSqvG29bZF7XnfEs2Q" version="13.9.9" type="github">
  <diagram id="ASFItuCyc9TmxKlV4wBx" name="Page-1">
    <mxGraphModel dx="1038" dy="580" grid="1" gridSize="10" guides="1" tooltips="1" connect="1" arrows="1" fold="1" page="1" pageScale="1" pageWidth="827" pageHeight="1169" math="0" shadow="0">
      <root>
        <mxCell id="0" />
        <mxCell id="1" parent="0" />
        <mxCell id="6AYIeCLRRH2hp8M1AMRL-1" value="" style="rounded=0;whiteSpace=wrap;html=1;" vertex="1" parent="1">
          <mxGeometry x="40" y="40" width="760" height="200" as="geometry" />
        </mxCell>
        <mxCell id="6AYIeCLRRH2hp8M1AMRL-2" value="&lt;font style=&quot;vertical-align: inherit&quot;&gt;&lt;font style=&quot;vertical-align: inherit&quot;&gt;vuex&lt;/font&gt;&lt;/font&gt;" style="text;html=1;strokeColor=none;fillColor=none;align=center;verticalAlign=middle;whiteSpace=wrap;rounded=0;" vertex="1" parent="1">
          <mxGeometry x="400" y="40" width="40" height="20" as="geometry" />
        </mxCell>
        <mxCell id="6AYIeCLRRH2hp8M1AMRL-4" value="&lt;font style=&quot;vertical-align: inherit&quot;&gt;&lt;font style=&quot;vertical-align: inherit&quot;&gt;画布&lt;/font&gt;&lt;/font&gt;" style="rounded=0;whiteSpace=wrap;html=1;" vertex="1" parent="1">
          <mxGeometry x="40" y="320" width="760" height="280" as="geometry" />
        </mxCell>
        <mxCell id="6AYIeCLRRH2hp8M1AMRL-5" value="&lt;font style=&quot;vertical-align: inherit&quot;&gt;&lt;font style=&quot;vertical-align: inherit&quot;&gt;节点&lt;/font&gt;&lt;/font&gt;" style="rounded=0;whiteSpace=wrap;html=1;" vertex="1" parent="1">
          <mxGeometry x="40" y="320" width="130" height="280" as="geometry" />
        </mxCell>
        <mxCell id="6AYIeCLRRH2hp8M1AMRL-6" value="&lt;font style=&quot;vertical-align: inherit&quot;&gt;&lt;font style=&quot;vertical-align: inherit&quot;&gt;基础配置&lt;/font&gt;&lt;/font&gt;" style="rounded=0;whiteSpace=wrap;html=1;" vertex="1" parent="1">
          <mxGeometry x="680" y="320" width="120" height="280" as="geometry" />
        </mxCell>
        <mxCell id="6AYIeCLRRH2hp8M1AMRL-14" style="edgeStyle=orthogonalEdgeStyle;rounded=0;orthogonalLoop=1;jettySize=auto;html=1;" edge="1" parent="1" source="6AYIeCLRRH2hp8M1AMRL-7" target="6AYIeCLRRH2hp8M1AMRL-13">
          <mxGeometry relative="1" as="geometry" />
        </mxCell>
        <mxCell id="6AYIeCLRRH2hp8M1AMRL-7" value="&lt;font style=&quot;vertical-align: inherit&quot;&gt;&lt;font style=&quot;vertical-align: inherit&quot;&gt;流程&lt;/font&gt;&lt;/font&gt;" style="ellipse;whiteSpace=wrap;html=1;aspect=fixed;" vertex="1" parent="1">
          <mxGeometry x="330" y="350" width="80" height="80" as="geometry" />
        </mxCell>
        <mxCell id="6AYIeCLRRH2hp8M1AMRL-9" style="edgeStyle=orthogonalEdgeStyle;rounded=0;orthogonalLoop=1;jettySize=auto;html=1;entryX=0.5;entryY=0;entryDx=0;entryDy=0;" edge="1" parent="1" source="6AYIeCLRRH2hp8M1AMRL-8" target="6AYIeCLRRH2hp8M1AMRL-5">
          <mxGeometry relative="1" as="geometry">
            <mxPoint x="98" y="310" as="targetPoint" />
          </mxGeometry>
        </mxCell>
        <mxCell id="6AYIeCLRRH2hp8M1AMRL-8" value="nodes:{&lt;br&gt;sources，&lt;br&gt;&lt;span style=&quot;color: rgb(51 , 51 , 51) ; font-family: &amp;#34;arial&amp;#34; , &amp;#34;microsoft yahei&amp;#34; , &amp;#34;\\5fae软雅黑&amp;#34; , &amp;#34;\\5b8b体&amp;#34; , &amp;#34;malgun gothic&amp;#34; , &amp;#34;meiryo&amp;#34; , sans-serif ; font-size: 13.6px ; line-height: 25.9875px ; text-align: justify ; background-color: rgb(247 , 248 , 250)&quot;&gt;branchs,&lt;br&gt;&lt;/span&gt;actions&lt;br&gt;}" style="rounded=0;whiteSpace=wrap;html=1;" vertex="1" parent="1">
          <mxGeometry x="50" y="80" width="100" height="110" as="geometry" />
        </mxCell>
        <mxCell id="6AYIeCLRRH2hp8M1AMRL-11" style="edgeStyle=orthogonalEdgeStyle;rounded=0;orthogonalLoop=1;jettySize=auto;html=1;" edge="1" parent="1" source="6AYIeCLRRH2hp8M1AMRL-10" target="6AYIeCLRRH2hp8M1AMRL-7">
          <mxGeometry relative="1" as="geometry" />
        </mxCell>
        <mxCell id="6AYIeCLRRH2hp8M1AMRL-10" value="&lt;span style=&quot;color: rgb(156 , 220 , 254) ; background-color: rgb(30 , 30 , 30) ; font-family: &amp;#34;consolas&amp;#34; , &amp;#34;courier new&amp;#34; , monospace ; font-size: 14px&quot;&gt;existNodes&lt;/span&gt;:{&lt;br&gt;sources&lt;br&gt;branchs&lt;br&gt;actions&lt;br&gt;}" style="rounded=0;whiteSpace=wrap;html=1;" vertex="1" parent="1">
          <mxGeometry x="220" y="90" width="110" height="110" as="geometry" />
        </mxCell>
        <mxCell id="6AYIeCLRRH2hp8M1AMRL-13" value="" style="triangle;whiteSpace=wrap;html=1;direction=north;" vertex="1" parent="1">
          <mxGeometry x="330" y="490" width="80" height="60" as="geometry" />
        </mxCell>
        <mxCell id="6AYIeCLRRH2hp8M1AMRL-18" style="edgeStyle=orthogonalEdgeStyle;rounded=0;orthogonalLoop=1;jettySize=auto;html=1;exitX=0.5;exitY=1;exitDx=0;exitDy=0;entryX=0.5;entryY=0;entryDx=0;entryDy=0;" edge="1" parent="1" source="6AYIeCLRRH2hp8M1AMRL-15" target="6AYIeCLRRH2hp8M1AMRL-7">
          <mxGeometry relative="1" as="geometry" />
        </mxCell>
        <mxCell id="6AYIeCLRRH2hp8M1AMRL-15" value="&lt;span style=&quot;color: rgb(156 , 220 , 254) ; background-color: rgb(30 , 30 , 30) ; font-family: &amp;#34;consolas&amp;#34; , &amp;#34;courier new&amp;#34; , monospace ; font-size: 14px&quot;&gt;existLines&lt;/span&gt;:[]" style="rounded=0;whiteSpace=wrap;html=1;" vertex="1" parent="1">
          <mxGeometry x="430" y="85" width="110" height="110" as="geometry" />
        </mxCell>
        <mxCell id="6AYIeCLRRH2hp8M1AMRL-19" style="edgeStyle=orthogonalEdgeStyle;rounded=0;orthogonalLoop=1;jettySize=auto;html=1;" edge="1" parent="1" source="6AYIeCLRRH2hp8M1AMRL-17" target="6AYIeCLRRH2hp8M1AMRL-6">
          <mxGeometry relative="1" as="geometry" />
        </mxCell>
        <mxCell id="6AYIeCLRRH2hp8M1AMRL-17" value="pageData:{&lt;br&gt;base,&lt;br&gt;&lt;span style=&quot;color: rgb(51 , 51 , 51) ; font-family: &amp;#34;arial&amp;#34; , &amp;#34;microsoft yahei&amp;#34; , &amp;#34;\\5fae软雅黑&amp;#34; , &amp;#34;\\5b8b体&amp;#34; , &amp;#34;malgun gothic&amp;#34; , &amp;#34;meiryo&amp;#34; , sans-serif ; font-size: 13.6px ; line-height: 25.9875px ; text-align: justify ; background-color: rgb(247 , 248 , 250)&quot;&gt;global&lt;/span&gt;&lt;br&gt;}" style="rounded=0;whiteSpace=wrap;html=1;" vertex="1" parent="1">
          <mxGeometry x="640" y="80" width="140" height="120" as="geometry" />
        </mxCell>
      </root>
    </mxGraphModel>
  </diagram>
</mxfile>
